<?xml version="1.0" standalone="no"?>
<!DOCTYPE svg PUBLIC "-//W3C//DTD SVG 20010904//EN"
 "http://www.w3.org/TR/2001/REC-SVG-20010904/DTD/svg10.dtd">
<svg version="1.0" xmlns="http://www.w3.org/2000/svg"
 width="273.000000pt" height="208.000000pt" viewBox="0 0 273.000000 208.000000"
 preserveAspectRatio="xMidYMid meet">
<metadata>
Created by potrace 1.16, written by Peter Selinger 2001-2019
</metadata>
<g transform="translate(0.000000,208.000000) scale(0.100000,-0.100000)"
fill="#fd0619" stroke="none">
<path d="M1211 1776 c-95 -95 -172 -179 -170 -185 2 -5 83 -89 179 -186 l174
-176 178 178 178 178 -183 183 -182 182 -174 -174z"/>
<path d="M245 650 l-180 -180 180 -180 180 -180 180 180 181 180 -181 180
-180 180 -180 -180z"/>
<path d="M2137 652 l-177 -177 180 -180 180 -180 180 180 180 180 -177 177
c-98 98 -180 178 -183 178 -3 0 -85 -80 -183 -178z"/>
</g>
</svg>
